<?xml version="1.0" encoding="utf-8"?>
<!-- Generator: Adobe Illustrator 27.5.0, SVG Export Plug-In . SVG Version: 6.00 Build 0)  -->
<svg version="1.1" id="Layer_1" xmlns="http://www.w3.org/2000/svg" xmlns:xlink="http://www.w3.org/1999/xlink" x="0px" y="0px"
	 viewBox="0 0 590.4 57.6" style="enable-background:new 0 0 590.4 57.6;" xml:space="preserve">
<path d="M63.86,51.16c-5.65,0-8.8-5.35-8.8-15.03c0-9.83,3.15-15.03,8.8-15.03s8.8,5.28,8.8,15.03
	C72.65,45.96,69.5,51.16,63.86,51.16 M63.86,17.07c-11.51,0-17.89,8.58-17.89,19.06c0,10.48,6.38,19.06,17.89,19.06
	c11.51,0,17.89-8.58,17.89-19.06C81.75,25.65,75.37,17.07,63.86,17.07 M143.84,17.07c-5.43,0-8.43,2.35-10.12,5.35h-0.44V17.8h-8.65
	v36.66h8.65V30.78c0-5.42,2.79-8.58,7.26-8.58c4.33,0,6.23,2.86,6.23,7.19v25.07h8.65V29.31C155.43,21.76,151.47,17.07,143.84,17.07
	 M175.07,17.07c-7.99,0-14,3.37-14,10.56c0,6.09,4.18,9.39,8.87,10.56l7.33,1.83c3.89,0.95,5.65,2.35,5.65,5.43
	c0,3.74-2.64,5.87-7.26,5.87c-4.99,0-7.55-2.42-8.36-8.5l-7.77,2.2c0.44,6.31,6.31,10.19,15.18,10.19c9.9,0,15.25-4.62,15.25-11.95
	c0-6.89-4.77-9.75-9.75-11l-7.04-1.76c-3.52-0.88-5.06-2.49-5.06-4.84c0-2.93,2.49-4.69,6.23-4.69c4.4,0,7.11,2.42,7.48,7.04
	l7.33-2.2C188.27,20.66,183.21,17.07,175.07,17.07 M211.44,51.16c-5.65,0-8.8-5.35-8.8-15.03c0-9.83,3.15-15.03,8.8-15.03
	c5.65,0,8.8,5.28,8.8,15.03C220.24,45.96,217.08,51.16,211.44,51.16 M211.44,17.07c-11.51,0-17.89,8.58-17.89,19.06
	c0,10.48,6.38,19.06,17.89,19.06c11.51,0,17.89-8.58,17.89-19.06C229.33,25.65,222.95,17.07,211.44,17.07 M253.67,17.07
	c-5.43,0-8.43,2.35-10.12,5.35h-0.44V17.8h-8.65v36.66h8.65V30.78c0-5.42,2.79-8.58,7.26-8.58c4.33,0,6.23,2.86,6.23,7.19v25.07
	h8.65V29.31C265.25,21.76,261.29,17.07,253.67,17.07 M382.19,51.16c-5.65,0-8.8-5.35-8.8-15.03c0-9.83,3.15-15.03,8.8-15.03
	c5.65,0,8.8,5.28,8.8,15.03C390.99,45.96,387.83,51.16,382.19,51.16 M382.19,17.07c-11.51,0-17.89,8.58-17.89,19.06
	c0,10.48,6.38,19.06,17.89,19.06c11.51,0,17.89-8.58,17.89-19.06C400.08,25.65,393.7,17.07,382.19,17.07 M462.17,17.07
	c-5.43,0-8.43,2.35-10.12,5.35h-0.44V17.8h-8.65v36.66h8.65V30.78c0-5.42,2.79-8.58,7.26-8.58c4.33,0,6.23,2.86,6.23,7.19v25.07
	h8.65V29.31C473.76,21.76,469.8,17.07,462.17,17.07 M493.41,17.07c-7.99,0-14,3.37-14,10.56c0,6.09,4.18,9.39,8.87,10.56l7.33,1.83
	c3.89,0.95,5.65,2.35,5.65,5.43c0,3.74-2.64,5.87-7.26,5.87c-4.99,0-7.55-2.42-8.36-8.5l-7.77,2.2c0.44,6.31,6.31,10.19,15.18,10.19
	c9.9,0,15.25-4.62,15.25-11.95c0-6.89-4.77-9.75-9.75-11l-7.04-1.76c-3.52-0.88-5.06-2.49-5.06-4.84c0-2.93,2.49-4.69,6.23-4.69
	c4.4,0,7.11,2.42,7.48,7.04l7.33-2.2C506.6,20.66,501.54,17.07,493.41,17.07 M529.77,51.16c-5.65,0-8.8-5.35-8.8-15.03
	c0-9.83,3.15-15.03,8.8-15.03c5.65,0,8.8,5.28,8.8,15.03C538.57,45.96,535.41,51.16,529.77,51.16 M529.77,17.07
	c-11.51,0-17.89,8.58-17.89,19.06c0,10.48,6.38,19.06,17.89,19.06s17.89-8.58,17.89-19.06C547.66,25.65,541.28,17.07,529.77,17.07
	 M572,17.07c-5.43,0-8.43,2.35-10.12,5.35h-0.44V17.8h-8.65v36.66h8.65V30.78c0-5.42,2.79-8.58,7.26-8.58
	c4.33,0,6.23,2.86,6.23,7.19v25.07h8.65V29.31C583.58,21.76,579.62,17.07,572,17.07 M40.84,3.14h-9.09v37.9
	c0,6.16-2.35,9.82-7.92,9.82c-5.5,0-7.92-3.89-7.92-10.56v-7.04l-9.09,2.27v3.15c0,9.6,4.77,16.94,17.01,16.94
	c12.24,0,17.01-7.33,17.01-16.94V3.14 M95.53,3.14h-8.65v51.32h8.65V30.78c0-5.42,2.79-8.58,7.26-8.58c4.33,0,6.23,2.86,6.23,7.19
	v25.07h8.65V29.31c0-7.55-3.96-12.24-11.58-12.24c-5.43,0-8.43,2.35-10.12,5.35h-0.44V3.14 M359.17,3.14h-9.09v37.9
	c0,6.16-2.35,9.82-7.92,9.82c-5.5,0-7.92-3.89-7.92-10.56v-7.04l-9.09,2.27v3.15c0,9.6,4.77,16.94,17.01,16.94
	c12.24,0,17.01-7.33,17.01-16.94V3.14 M413.86,3.14h-8.65v51.32h8.65V30.78c0-5.42,2.79-8.58,7.26-8.58c4.33,0,6.23,2.86,6.23,7.19
	v25.07H436V29.31c0-7.55-3.96-12.24-11.58-12.24c-5.43,0-8.43,2.35-10.12,5.35h-0.44V3.14 M293.77,50.28
	c-7.04,0-11.36-5.72-11.36-11.8c0-3.81,1.69-7.33,4.47-9.31l16.57,18.11C300.37,49.11,296.92,50.28,293.77,50.28 M309.9,41.26
	l-14.37-15.84c2.57-1.03,5.06-1.39,7.11-1.39c5.94,0,9.6,3.45,9.6,9.39C312.25,36.06,311.51,38.77,309.9,41.26 M293.55,23.3
	l-3.15-3.52c-2.79-3.08-3.59-4.99-3.59-7.26c0-4.25,2.71-6.67,6.96-6.67c4.33,0,6.89,2.49,6.89,7.04
	C300.66,17.07,298.61,21.03,293.55,23.3 M293.99,1.97c-10.12,0-15.1,5.65-15.1,12.68c0,3.81,1.61,7.63,5.87,12.24l0.07,0.15
	c-7.18,3.45-10.48,9.02-10.48,14.74c0,7.55,5.79,13.86,14.74,13.86c5.13,0,11.14-2.13,16.57-5.94l4.4,4.77h11.51v-0.37l-9.38-10.34
	c3.96-4.69,6.23-9.82,6.23-14.3c0-5.57-3.74-9.31-9.6-9.31c-3.08,0-6.53,0.88-8.8,1.76l-0.15-0.29c5.57-3.01,7.92-5.79,7.92-9.68
	C307.77,6.37,302.79,1.97,293.99,1.97"/>
</svg>
